<svg width="36" height="40" viewBox="0 0 36 40" fill="none" xmlns="http://www.w3.org/2000/svg">
<path d="M35.122 0L31.9223 35.9958L17.5395 40L3.19631 36.0015L0 0H35.122Z" fill="#264DE4"/>
<path d="M29.183 33.7031L31.9173 2.94299H17.561V36.9387L29.183 33.7031Z" fill="#2965F1"/>
<path d="M7.32755 16.2966L7.72163 20.712H17.561V16.2966H7.32755Z" fill="#EBEBEB"/>
<path d="M17.5612 7.35901H17.546H6.53583L6.93552 11.7745H17.5612V7.35901Z" fill="#EBEBEB"/>
<path d="M17.5612 32.3573V27.7634L17.542 27.7685L12.6451 26.4407L12.3321 22.9192H9.95257H7.91826L8.53426 29.852L17.541 32.3629L17.5612 32.3573Z" fill="#EBEBEB"/>
<path d="M22.96 20.7113L22.4497 26.4378L17.5457 27.767V32.3607L26.5596 29.852L26.6257 29.106L27.659 17.4816L27.7663 16.296L28.56 7.35901H17.5457V11.7745H23.7414L23.3413 16.296H17.5457V20.7113H22.96Z" fill="white"/>
</svg>
