<svg width="38" height="40" viewBox="0 0 38 40" fill="none" xmlns="http://www.w3.org/2000/svg">
<path d="M18.9226 24C21.1318 24 22.9226 22.2091 22.9226 20C22.9226 17.7909 21.1318 16 18.9226 16C16.7135 16 14.9226 17.7909 14.9226 20C14.9226 22.2091 16.7135 24 18.9226 24Z" fill="#58C4DC"/>
<path d="M18.9226 27.225C29.3733 27.225 37.8453 23.9903 37.8453 20C37.8453 16.0098 29.3733 12.775 18.9226 12.775C8.47195 12.775 0 16.0098 0 20C0 23.9903 8.47195 27.225 18.9226 27.225Z" stroke="#58C4DC"/>
<path d="M12.6656 23.6125C17.891 32.663 24.9283 38.3826 28.384 36.3875C31.8396 34.3923 30.405 25.438 25.1797 16.3875C19.9544 7.33693 12.917 1.61737 9.46135 3.6125C6.00568 5.60763 7.44028 14.5619 12.6656 23.6125Z" stroke="#58C4DC"/>
<path d="M12.6656 16.3875C7.44025 25.438 6.00565 34.3923 9.46132 36.3874C12.917 38.3826 19.9543 32.663 25.1797 23.6125C30.405 14.5619 31.8396 5.6076 28.384 3.61247C24.9283 1.61734 17.8909 7.3369 12.6656 16.3875Z" stroke="#58C4DC"/>
</svg>
